<?xml version="1.0" encoding="UTF-8" standalone="no"?>
<svg
   width="32"
   height="24"
   viewBox="0 0 32 24"
   fill="none"
   version="1.1"
   id="svg4"
   sodipodi:docname="gitbook.svg"
   inkscape:version="1.1.2 (0a00cf5339, 2022-02-04, custom)"
   xmlns:inkscape="http://www.inkscape.org/namespaces/inkscape"
   xmlns:sodipodi="http://sodipodi.sourceforge.net/DTD/sodipodi-0.dtd"
   xmlns="http://www.w3.org/2000/svg"
   xmlns:svg="http://www.w3.org/2000/svg">
  <defs
     id="defs8" />
  <sodipodi:namedview
     id="namedview6"
     pagecolor="#ffffff"
     bordercolor="#666666"
     borderopacity="1.0"
     inkscape:pageshadow="2"
     inkscape:pageopacity="0.0"
     inkscape:pagecheckerboard="0"
     showgrid="false"
     inkscape:zoom="26.458333"
     inkscape:cx="15.987402"
     inkscape:cy="12.018898"
     inkscape:window-width="1920"
     inkscape:window-height="1010"
     inkscape:window-x="0"
     inkscape:window-y="0"
     inkscape:window-maximized="1"
     inkscape:current-layer="svg4" />
  <path
     d="M14.3988 19.6999C14.8988 19.6999 15.3488 20.0999 15.3488 20.6499C15.3488 21.1499 14.9488 21.5999 14.3988 21.5999C13.8988 21.5999 13.4488 21.1999 13.4488 20.6499C13.4488 20.0999 13.8988 19.6999 14.3988 19.6999ZM29.0988 13.8999C28.5988 13.8999 28.1488 13.4999 28.1488 12.9499C28.1488 12.4499 28.5488 11.9999 29.0988 11.9999C29.5988 11.9999 30.0488 12.3999 30.0488 12.9499C30.0488 13.4499 29.5988 13.8999 29.0988 13.8999ZM29.0988 10.0499C27.4988 10.0499 26.1988 11.3499 26.1988 12.9499C26.1988 13.2499 26.2488 13.5499 26.3488 13.8499L16.7988 18.9499C16.2488 18.1499 15.3488 17.6999 14.3988 17.6999C13.2988 17.6999 12.2988 18.3499 11.7988 19.2999L3.19877 14.7999C2.29877 14.2999 1.59877 12.8499 1.69877 11.4499C1.74877 10.7499 1.99877 10.1999 2.34877 9.99992C2.59877 9.84992 2.84877 9.89992 3.19877 10.0499L3.24877 10.0999C5.54877 11.2999 12.9988 15.1999 13.2988 15.3499C13.7988 15.5499 14.0488 15.6499 14.8988 15.2499L30.2988 7.24992C30.5488 7.14992 30.7988 6.94992 30.7988 6.59992C30.7988 6.14992 30.3488 5.94992 30.3488 5.94992C29.4488 5.54992 28.0988 4.89992 26.7988 4.29992C23.9988 2.99992 20.7988 1.49992 19.3988 0.749922C18.1988 0.0999225 17.1988 0.649922 17.0488 0.749922L16.6988 0.899922C10.3488 4.09992 1.94877 8.24992 1.44877 8.54992C0.598768 9.04992 0.048768 10.0999 -0.00123205 11.3999C-0.101232 13.4499 0.948768 15.5999 2.44877 16.3499L11.5488 21.0499C11.7488 22.4499 12.9988 23.5499 14.3988 23.5499C15.9988 23.5499 17.2488 22.2999 17.2988 20.6999L27.2988 15.2999C27.7988 15.6999 28.4488 15.8999 29.0988 15.8999C30.6988 15.8999 31.9988 14.5999 31.9988 12.9999C31.9988 11.3499 30.6988 10.0499 29.0988 10.0499Z"
     fill="white"
     id="path2"
     style="fill:#a8a9a8;fill-opacity:1" />
</svg>
