<?xml version="1.0" encoding="UTF-8" standalone="no"?>
<svg
   viewBox="0 0 64 64"
   version="1.1"
   id="svg13"
   sodipodi:docname="growth.svg"
   inkscape:version="1.1.1 (3bf5ae0d25, 2021-09-20, custom)"
   xmlns:inkscape="http://www.inkscape.org/namespaces/inkscape"
   xmlns:sodipodi="http://sodipodi.sourceforge.net/DTD/sodipodi-0.dtd"
   xmlns:xlink="http://www.w3.org/1999/xlink"
   xmlns="http://www.w3.org/2000/svg"
   xmlns:svg="http://www.w3.org/2000/svg">
  <defs
     id="defs17">
    <linearGradient
       inkscape:collect="always"
       id="linearGradient2870">
      <stop
         style="stop-color:#b27fff;stop-opacity:1;"
         offset="0"
         id="stop2866" />
      <stop
         style="stop-color:#b27fff;stop-opacity:0;"
         offset="1"
         id="stop2868" />
    </linearGradient>
    <filter
       inkscape:collect="always"
       style="color-interpolation-filters:sRGB"
       id="filter995"
       x="-0.082173255"
       y="-0.11872654"
       width="1.1643465"
       height="1.2374531">
      <feGaussianBlur
         inkscape:collect="always"
         stdDeviation="10.76294"
         id="feGaussianBlur997" />
    </filter>
    <linearGradient
       inkscape:collect="always"
       xlink:href="#linearGradient2870"
       id="linearGradient2872"
       x1="200.06583"
       y1="353.16031"
       x2="205.31908"
       y2="145.51709"
       gradientUnits="userSpaceOnUse" />
  </defs>
  <sodipodi:namedview
     id="namedview15"
     pagecolor="#ffffff"
     bordercolor="#666666"
     borderopacity="1.0"
     inkscape:pageshadow="2"
     inkscape:pageopacity="0.0"
     inkscape:pagecheckerboard="0"
     showgrid="false"
     inkscape:zoom="4.0398922"
     inkscape:cx="37.624766"
     inkscape:cy="37.872298"
     inkscape:window-width="1280"
     inkscape:window-height="730"
     inkscape:window-x="0"
     inkscape:window-y="0"
     inkscape:window-maximized="1"
     inkscape:current-layer="svg13" />
  <path
     style="opacity:0.840005;fill:url(#linearGradient2872);fill-opacity:1;stroke:none;stroke-width:5.43327;stroke-linecap:butt;stroke-linejoin:miter;stroke-miterlimit:4;stroke-dasharray:none;stroke-opacity:1;filter:url(#filter995)"
     d="m 40.173907,137.45749 29.310215,176.64163 c 0,0 11.214818,36.79334 129.106488,39.34884 117.89167,2.5555 114.91167,-34.46267 114.91167,-34.46267 l 41.02034,-182.97852 z"
     id="path960"
     transform="matrix(0.17781862,0,0,0.19050101,-2.333066,-2.9532212)" />
  <g
     id="Business_sale_growing_profit"
     transform="matrix(0.73408081,0,0,0.73408081,8.7135622,10.241028)"
     style="stroke-width:1.36225">
    <path
       d="m 61.3816,12.2871 v 0 L 50.5544,2.3837 a 2.7665,2.7665 0 0 0 -3.7549,0 l -10.8271,9.9034 a 2.3338,2.3338 0 0 0 1.5742,4.0561 h 4.2979 a 0.486,0.486 0 0 1 0.4853,0.4854 V 45.7441 A 2.2884,2.2884 0 0 0 44.616,48.03 h 7.8828 a 2.2884,2.2884 0 0 0 2.2861,-2.2856 V 16.8286 a 0.486,0.486 0 0 1 0.4854,-0.4854 h 4.5371 a 2.3338,2.3338 0 0 0 1.5742,-4.0561 z"
       id="path2"
       style="stroke-width:1.36225" />
    <path
       d="M 53.7849,57.0634 H 43.33 a 1.75,1.75 0 0 0 0,3.5 h 10.4549 a 1.75,1.75 0 0 0 0,-3.5 z"
       id="path4"
       style="stroke-width:1.36225" />
    <path
       d="M 53.7849,51.5356 H 43.33 a 1.75,1.75 0 1 0 0,3.5 h 10.4549 a 1.75,1.75 0 1 0 0,-3.5 z"
       id="path6"
       style="stroke-width:1.36225" />
    <rect
       x="4.5075998"
       y="37.131802"
       width="12.4551"
       height="23.681601"
       rx="2.4647999"
       id="rect8"
       style="stroke-width:1.36225" />
    <path
       d="m 24.97,26.0424 h 7.5259 a 2.4648,2.4648 0 0 1 2.4648,2.4648 v 29.8414 a 2.4648,2.4648 0 0 1 -2.4648,2.4648 H 24.97 A 2.4648,2.4648 0 0 1 22.5052,58.3486 V 28.5068 A 2.4644,2.4644 0 0 1 24.97,26.0424 Z"
       id="path10"
       style="stroke-width:1.36225" />
  </g>
</svg>
