<?xml version="1.0" encoding="UTF-8" standalone="no"?>
<svg
   width="32px"
   height="32px"
   viewBox="0 0 32 32"
   version="1.1"
   id="svg11"
   sodipodi:docname="lock.svg"
   inkscape:version="1.1.1 (3bf5ae0d25, 2021-09-20, custom)"
   xmlns:inkscape="http://www.inkscape.org/namespaces/inkscape"
   xmlns:sodipodi="http://sodipodi.sourceforge.net/DTD/sodipodi-0.dtd"
   xmlns:xlink="http://www.w3.org/1999/xlink"
   xmlns="http://www.w3.org/2000/svg"
   xmlns:svg="http://www.w3.org/2000/svg"
   xmlns:sketch="http://www.bohemiancoding.com/sketch/ns">
  <sodipodi:namedview
     id="namedview13"
     pagecolor="#ffffff"
     bordercolor="#666666"
     borderopacity="1.0"
     inkscape:pageshadow="2"
     inkscape:pageopacity="0.0"
     inkscape:pagecheckerboard="0"
     showgrid="false"
     inkscape:zoom="16.5"
     inkscape:cx="16"
     inkscape:cy="17.393939"
     inkscape:window-width="1280"
     inkscape:window-height="730"
     inkscape:window-x="0"
     inkscape:window-y="0"
     inkscape:window-maximized="1"
     inkscape:current-layer="svg11" />
  <!-- Generator: Sketch 3.0.3 (7891) - http://www.bohemiancoding.com/sketch -->
  <title
     id="title2">icon 118 lock rounded</title>
  <desc
     id="desc4">Created with Sketch.</desc>
  <defs
     id="defs6">
    <linearGradient
       inkscape:collect="always"
       id="linearGradient1472">
      <stop
         style="stop-color:#00b2cd;stop-opacity:1;"
         offset="0"
         id="stop1468" />
      <stop
         style="stop-color:#00b2cd;stop-opacity:0;"
         offset="1"
         id="stop1470" />
    </linearGradient>
    <filter
       inkscape:collect="always"
       style="color-interpolation-filters:sRGB"
       id="filter995"
       x="-0.082173255"
       y="-0.11872654"
       width="1.1643465"
       height="1.2374531">
      <feGaussianBlur
         inkscape:collect="always"
         stdDeviation="10.76294"
         id="feGaussianBlur997" />
    </filter>
    <linearGradient
       inkscape:collect="always"
       xlink:href="#linearGradient1472"
       id="linearGradient1474"
       x1="199.52295"
       y1="354.3494"
       x2="201.52426"
       y2="187.46318"
       gradientUnits="userSpaceOnUse" />
  </defs>
  <path
     style="opacity:0.840005;fill:url(#linearGradient1474);fill-opacity:1;stroke:none;stroke-width:10.8421;stroke-linecap:butt;stroke-linejoin:miter;stroke-miterlimit:4;stroke-dasharray:none;stroke-opacity:1;filter:url(#filter995)"
     d="m 40.173907,137.45749 29.310215,176.64163 c 0,0 11.214818,36.79334 129.106488,39.34884 117.89167,2.5555 114.91167,-34.46267 114.91167,-34.46267 l 41.02034,-182.97852 z"
     id="path960"
     transform="matrix(0.09005219,0,0,0.09446576,-1.2713748,-0.9037767)" />
  <g
     id="Page-1"
     stroke="none"
     stroke-width="1.07925"
     fill="none"
     fill-rule="evenodd"
     sketch:type="MSPage"
     transform="matrix(0.92657039,0,0,0.92657039,1.134403,2.0347516)">
    <g
       id="icon-118-lock-rounded"
       sketch:type="MSArtboardGroup"
       fill="#000000"
       style="stroke-width:1.16478">
      <path
         d="m 16,21.914647 v 2.594348 C 16,24.780169 16.231934,25 16.5,25 16.776142,25 17,24.772119 17,24.508995 V 21.914647 C 17.582596,21.708729 18,21.153109 18,20.5 18,19.671573 17.328427,19 16.5,19 15.671573,19 15,19.671573 15,20.5 c 0,0.653109 0.417404,1.208729 1,1.414647 z M 9,14.000013 V 10.499235 C 9,6.3567048 12.357864,3 16.5,3 20.633707,3 24,6.3575219 24,10.499235 v 3.500778 c 1.659147,0.0047 3,1.350304 3,3.009465 V 22 c 0,4.409288 -3.581322,8 -7.999106,8 H 13.999106 C 9.5861677,30 6,26.418278 6,22 V 17.009478 C 6,15.339581 7.3423335,14.004715 9,14.000013 Z M 12,14 V 10.500854 C 12,8.0092478 14.014719,6 16.5,6 18.980224,6 21,8.0151008 21,10.500854 V 14 Z"
         id="lock-rounded"
         sketch:type="MSShapeGroup"
         transform="matrix(0.8783505,0,0,0.8783505,1.8662292,1.8186965)"
         style="stroke-width:1.22872" />
    </g>
  </g>
</svg>
