<svg viewBox="0 0 1000 1000" xmlns="http://www.w3.org/2000/svg" xmlns:xlink="http://www.w3.org/1999/xlink" overflow="hidden"><g><g><path d="M326.3 902.3C217.4 902.3 111.5 871.3 20 812.6 11.5 807.1 7.8 796.5 11.2 786.9 14.6 777.3 24.3 771.2 34.3 772.7 111 781.6 191.1 766 258.3 727.6 191.9 707.6 137.8 656.2 116 588 113.6 580.6 115.3 572.6 120.5 566.9 123.6 563.4 127.8 561.1 132.3 560.1 80.4 520.4 47.6 458 47.6 389.5 47.6 381.8 51.7 373.5 58.4 369.5 65.1 365.6 73.3 364.4 80 368 81.9 369.1 83.9 370.1 85.8 371.1 62.2 336.3 49.2 294.6 49.2 251.2 49.2 213.5 59.2 176.3 78.2 143.7 81.8 137.5 88.2 133.5 95.3 132.9 102.4 132.4 109.3 135.3 113.9 140.8 202 248.9 329.6 317.5 467.2 331.6 466.6 325 466.3 318.3 466.3 311.7 466.3 193.8 562.3 97.8 680.2 97.8 735 97.8 788 119 827.5 156.5 863.9 148.2 898.7 134.2 931.3 114.9 939.1 110.4 948.9 111 956 116.6 963.1 122.3 965.9 131.7 963.2 140.3 956.3 162 946 182.2 932.8 200.4 941.9 197.3 950.7 193.7 959.5 189.9 968.3 185.9 978.8 188.3 985 195.8 991.2 203.2 991.8 213.9 986.4 221.9 961.1 259.6 930.2 292.5 894.6 319.8 894.7 324.5 894.8 329.3 894.8 334 894.8 613.3 682.1 902.3 326.3 902.3ZM120.3 816.5C185.1 844.3 255 858.7 326.4 858.7 654.9 858.7 851.3 591.9 851.3 333.8 851.3 325.8 851.1 317.8 850.8 309.8 850.5 302.5 853.9 295.5 859.8 291.2 875.5 279.9 890.2 267.4 903.8 253.8 889.6 257.1 875.2 259.6 860.6 261.3 850.5 262.7 840.7 256.5 837.4 246.7 834.1 237 838 226.3 846.8 221 864.1 210.6 879.3 197.4 891.7 182.1 870 190.4 847.6 196.9 824.7 201.4 817.4 202.9 809.8 200.5 804.6 195 772.5 160.8 727.2 141.2 680.2 141.2 586.3 141.2 509.9 217.6 509.9 311.5 509.9 324.5 511.4 337.6 514.3 350.4 515.8 357 514.2 364 509.8 369.3 505.4 374.5 498.9 378.1 492 377.1 343.3 369.6 203.2 303.5 102.6 194.2 96.2 212.4 92.8 231.7 92.8 251.1 92.8 308.3 121.1 361.2 168.5 392.9 176.6 398.3 180.1 408.4 177.2 417.6 174.2 426.8 165 432.4 155.8 432.8 135 432.1 114.4 428.4 94.7 421.8 108.2 489.3 160.1 542.8 227.8 556.4 237.7 558.4 245 566.9 245.3 577 245.6 587.1 239 596.1 229.3 598.8 210.5 603.9 190.8 606.8 171.5 606.4 200.7 658 255.5 691.6 316.7 692.8 325.9 693 334 699 336.9 707.7 339.8 716.4 336.9 726.1 329.7 731.8 268.4 779.9 196.7 808.7 120.3 816.5Z" fill="#A8A9A8"/></g><g></g><g></g><g></g><g></g><g></g><g></g><g></g><g></g><g></g><g></g><g></g><g></g><g></g><g></g><g></g></g></svg>