<svg width="2286" height="1800" xmlns="http://www.w3.org/2000/svg" xmlns:xlink="http://www.w3.org/1999/xlink" overflow="hidden"><defs><clipPath id="clip0"><rect x="-183" y="-350" width="2286" height="1800"/></clipPath><clipPath id="clip1"><path d="M-182.367 836.351 1720.82-348.977 2102.37 263.649 199.184 1448.98Z" fill-rule="evenodd" clip-rule="evenodd"/></clipPath><clipPath id="clip2"><path d="M-182.367 836.351 1720.82-348.977 2102.37 263.649 199.184 1448.98Z" fill-rule="evenodd" clip-rule="evenodd"/></clipPath><clipPath id="clip3"><path d="M-182.367 836.351 1720.82-348.977 2102.37 263.649 199.184 1448.98Z" fill-rule="evenodd" clip-rule="evenodd"/></clipPath><linearGradient x1="16.8753" y1="1156.26" x2="1913.22" y2="-24.8087" gradientUnits="userSpaceOnUse" spreadMethod="pad" id="fill4"><stop offset="0" stop-color="#0097EE"/><stop offset="0.539" stop-color="#57FFDC"/><stop offset="1" stop-color="#0097EE"/></linearGradient></defs><g clip-path="url(#clip0)" transform="translate(183 350)"><g clip-path="url(#clip1)"><g clip-path="url(#clip2)"><g clip-path="url(#clip3)"><path d="M1413.94 394.921C1320.89 452.879 1071.78 464.185 933.833 470.187 903.982 471.5 878.406 472.742 859.749 473.996 751.456 481.831 710.606 532.759 658.346 597.272 610.954 655.729 557.215 722.028 438.709 773.805 351.551 812.106 294.581 782.362 239.826 753.398 200.564 733.359 163.828 713.907 116.987 718.459-6.50941 731.012-28.1998 807.155-49.3033 880.773-59.6993 917.485-69.6259 952.176-91.4339 979.581L-93.7245 977.984C-72.5389 950.967-62.6124 916.275-52.3337 880.068-30.8016 805.752-8.5652 728.405 116.564 715.698 164.027 710.759 201.462 730.64 240.918 750.99 295.286 779.331 351.556 808.647 437.47 771.121 555.353 719.732 608.781 653.627 655.862 595.364 706.33 532.83 749.905 479.342 859.325 471.235 877.789 469.671 903.559 468.74 933.41 467.427 1080.84 460.702 1354.71 448.229 1428.85 380.02 1444.77 365.354 1461.51 350.611 1478.98 334.975 1558.5 264.287 1648.99 184.171 1688.35 92.7043 1692.4 83.2662 1696.15 74.0222 1700.21 64.5842 1734.22-15.3484 1768.83-97.8062 1840.72-142.583 1841.66-143.164 1842.59-143.746 1843.83-144.521L1845.38-142.031C1844.45-141.45 1843.52-140.869 1842.58-140.287 1771.31-95.8977 1736.83-13.9451 1703.43 65.5996 1699.37 75.0377 1695.63 84.2817 1691.57 93.7198 1651.78 185.886 1561.29 266.001 1481.66 337.195 1464.19 352.83 1447.45 367.573 1431.53 382.239 1426.01 386.545 1420.48 390.85 1413.94 394.921ZM1376.45 413.09C1386.53 406.382 1396.91 399.48 1407.61 392.384 1516.16 320.459 1638.95 238.801 1698.53 115.301 1708.2 95.4561 1717.21 73.861 1725.99 53.2758 1756.38-17.9175 1787.67-91.83 1850.85-131.179 1851.16-131.373 1851.47-131.567 1851.78-131.761L1850.23-134.251C1849.92-134.057 1849.61-133.863 1849.3-133.669 1785.18-93.7383 1753.9-19.8257 1723.39 51.8726 1714.61 72.4576 1705.41 93.7416 1695.93 113.898 1636.78 236.699 1513.99 318.357 1406.06 389.895 1395.36 396.99 1384.98 403.892 1374.9 410.6 1373.03 411.763 1371.48 412.732 1369.61 413.895 1260.99 481.545 966.567 513.729 854.264 526.223L852.943 526.182C748.92 537.406 699.289 586.026 642.301 642.253 591.191 692.66 533.581 749.274 423.83 794.302 344.065 827.135 289.656 800.115 236.646 773.953 197.771 754.537 160.994 736.406 115.357 741.503-3.08847 755.231-22.6821 832.66-41.495 907.875-50.3349 943.617-59.0166 977.533-78.0235 1003.19L-75.7329 1004.79C-56.2974 978.432-47.927 944.709-38.7758 908.773-20.1977 834.568-0.838837 758.15 116.168 744.886 161.106 739.36 197.572 757.684 236.252 776.79 289.457 803.263 344.564 830.712 425.575 797.104 535.636 751.881 593.676 694.568 644.98 644.473 701.656 588.44 750.665 540.207 853.871 529.059L855.192 529.1C967.495 516.607 1262.42 484.54 1371.66 416.503 1373.22 415.533 1375.09 414.37 1376.45 413.09ZM1706.31 136.806C1720.15 110.477 1731.62 81.7345 1743.36 54.1194 1771.42-13.8906 1800.25-84.1147 1859.19-121.255L1857.64-123.745C1797.76-86.0231 1768.62-15.6051 1740.45 52.91 1729.21 80.6425 1717.24 109.268 1703.71 135.403 1621.42 292.486 1464.04 370.631 1325.07 439.477L1320.83 441.685C1200.95 501.661 956.108 565.599 846.443 581.633 747.817 595.975 692.56 639.029 628.859 688.638 574.224 731.304 512.196 779.439 410.578 818.106 336.767 845.935 284.221 821.211 233.072 797.345 194.662 779.367 158.466 762.17 114.85 767.737 1.57196 782.134-16.0069 863.491-31.4726 935.757-38.5626 970.842-45.688 1003.79-62.5163 1028.09L-60.2258 1029.69C-43.0862 1005.19-35.8434 971.74-28.4422 936.461-12.3895 861.67 4.25021 784.353 115.584 770.303 158.073 765.007 194.075 781.892 232.291 799.559 283.634 823.736 337.19 848.695 411.935 820.285 513.864 781.424 576.203 733.095 630.838 690.429 694.228 641.014 749.174 598.153 846.983 583.888 956.649 567.854 1201.8 503.722 1321.99 443.553L1326.23 441.344C1380.37 414.534 1437.51 386.291 1491.67 352.563 1577.14 299.762 1655.71 233.114 1706.31 136.806ZM1714.09 158.311C1731 127.906 1744.39 93.22 1757.42 60.0492 1784.51-9.51697 1810.14-75.1599 1866.21-111.372L1864.66-113.862C1839.02-97.4623 1817.41-73.2052 1798.35-39.3053 1781.24-9.21124 1767.86 25.4749 1755.02 58.9572 1741.98 92.128 1728.71 126.309 1711.8 156.714 1613.66 332.739 1445.64 406.281 1267.38 472.383 1220.24 489.643 1167.23 512.723 1111.35 536.732 1012.87 579.058 911.089 623.01 840.682 636.192 748.582 653.381 687.621 690.052 617.013 732.732 558.736 768.164 492.173 808.324 397.873 840.706 330.21 863.842 279.525 841.414 230.238 819.844 192.175 803.81 156.443 788.052 114.964 793.583 7.35992 808.766-7.30588 891.333-20.2463 964.186-26.2851 998.184-32.1657 1030.36-46.5041 1053.11L-44.2135 1054.71C-29.2526 1031.56-23.5659 999.082-17.2159 964.89-4.19901 892.853 10.232 811.297 115.893 796.461 156.555 791.006 192.093 806.453 229.728 823.185 279.208 845.067 330.903 867.729 399.189 844.206 493.8 811.63 560.363 771.47 618.951 735.844 689.249 693.358 749.704 656.57 841.493 639.574 911.9 626.393 1013.99 582.247 1112.78 539.727 1168.67 515.718 1221.68 492.638 1268.81 475.378 1355.88 443.179 1440.66 409.382 1515.98 362.473 1594.64 312.615 1663.46 249.022 1714.09 158.311ZM1721.56 180.01C1741.43 146.034 1755.87 106.802 1769.77 68.7745 1795.1-0.133667 1818.8-65.4298 1872.99-100.479L1871.44-102.969C1816.51-67.027 1792.5-1.53693 1767.05 67.8763 1753.15 105.904 1739.02 144.942 1718.95 178.607 1597.99 385.261 1394.18 454.743 1212.99 503.662 1137.17 524.103 1068.39 566.941 1001.59 608.112 942.147 645.135 885.931 679.715 833.871 691.837 749.852 710.904 681.321 742.355 608.667 775.51 542.197 806.11 473.355 837.755 383.804 864.587 322.795 883.146 274.283 862.821 227.363 843.664 189.494 827.941 153.721 813.505 114.069 819.194 11.9439 834.852 0.384964 918.939-10.1475 992.885-14.6302 1025.91-19.1484 1056.8-31.502 1077.89L-28.9002 1079.29C-16.2353 1058.01-12.1048 1026.5-7.31088 993.278 2.98677 920.343 14.816 837.383 114.686 822.266 153.639 816.147 189.101 830.778 226.465 846.383 274.084 865.969 322.907 886.1 384.733 867.464 474.594 840.438 543.437 808.793 609.906 778.194 682.055 744.922 750.586 713.471 834.605 694.403 887.171 682.399 943.504 647.314 1003.14 610.602 1069.44 569.314 1138.41 526.786 1213.42 506.422 1314.78 479.142 1423.27 445.267 1520.38 384.789 1597.56 336.717 1667.74 271.843 1721.56 180.01ZM1729.02 201.709C1751.74 164.667 1766.62 121.277 1780.95 79.0915 1804.45 10.025 1827.02-55.0009 1879.39-90.2087L1877.84-92.6985C1824.54-56.9093 1802.16 8.42798 1778.03 77.8821 1763.51 119.757 1748.63 163.146 1726.23 199.995 1662.56 304.444 1578.76 382.121 1470 437.761 1366.73 490.418 1254.52 516.242 1158.73 534.436 1069.89 551.32 1009.64 607.852 956.313 657.478 914.51 696.472 875.003 733.605 827.294 746.472 761.621 764.48 699.015 785.33 632.908 807.496 551.48 834.885 467.485 863.008 370.165 887.768 315.808 901.752 269.353 884.034 224.917 866.785 187.007 852.384 151.311 838.764 113.368 845.117 16.9155 861.561 7.64175 950.704 0.33902 1022.21-2.97519 1053.64-5.93723 1083.57-15.9949 1102.79L-13.5869 1103.88C-3.41187 1084.15-0.449844 1054.23 2.98178 1022.29 10.8715 948.261 19.2826 863.974 114.296 847.994 151.423 841.718 187.119 855.338 224.524 869.622 269.776 886.794 316.425 904.823 371.598 890.763 468.918 866.003 552.913 837.88 634.341 810.491 700.448 788.325 762.861 767.164 828.728 749.467 876.747 736.406 916.566 699.079 958.992 659.697 1012 610.266 1071.95 553.927 1160.16 537.431 1256.26 519.043 1368.67 493.53 1472.25 440.68 1490.02 431.769 1506.91 422.118 1523.09 412.038 1607.36 358.691 1675.33 289.578 1729.02 201.709ZM1736.8 223.214C1761.93 183.805 1777.05 135.946 1791.7 90.1075 1814 20.4949 1835.05-44.8831 1886.6-80.0144L1885.24-82.193C1833.07-46.6742 1811.59 19.403 1789.48 89.3267 1774.83 135.165 1759.52 182.713 1734.7 221.928 1574.45 475.082 1337.62 536.622 1105.47 565.445 1006.81 577.649 962.631 644.04 923.79 702.355 894.766 745.917 867.651 786.995 821.922 801.653 686.172 845.163 517.946 879.528 357.847 910.99 310.144 920.399 266.56 905.211 224.492 890.376 186.153 876.674 149.91 864.257 113.482 870.963 21.8872 888.269 16.2253 979.051 11.7183 1052.27 9.84282 1083.24 8.09023 1110.25 0.328583 1127.61L2.73656 1128.7C10.6156 1110.84 12.3682 1083.83 14.361 1052.35 19.1384 980.26 24.5654 890.489 114.217 873.529 150.14 866.706 185.759 879.51 223.905 892.901 266.478 907.854 310.255 923.353 358.775 913.868 519.185 882.212 687.101 848.041 823.161 804.337 869.707 789.602 897.251 747.826 926.585 704.07 965.115 645.948 1008.87 580.256 1106.4 568.323 1249.49 550.475 1394.08 520.465 1522 440.797 1600.97 390.746 1674.85 321.409 1736.8 223.214ZM1743.96 245.107C1771.5 203.331 1786.62 152.013 1801.7 102.016 1822.8 31.8576 1842.77-34.5715 1893.19-69.4325L1891.83-71.6111C1840.48-36.1686 1820.39 30.7656 1799.18 101.429 1784.21 150.921 1769.09 202.239 1741.86 243.821 1558.48 524.338 1301.29 579.551 1050.78 596.918 943.416 604.172 916.869 679.453 893.445 745.876 876.267 794.587 859.988 840.579 815.11 857.298 718.355 893.369 573.594 909.231 445.781 923.177 409.746 927.046 375.849 930.879 344.284 934.988 303.933 940.249 263.844 927.205 224.959 914.707 185.181 901.469 147.694 889.828 112.47 897.079 25.9252 915.559 23.8289 1012.76 22.2403 1083.73 21.6507 1112.6 21.184 1137.51 15.5245 1152.7L18.2437 1153.6C24.0205 1137.91 24.7985 1112.8 25.1942 1083.61 26.9821 1009.5 28.9146 917.585 113.204 899.645 147.923 892.276 184.788 904.305 224.178 916.921 263.063 929.419 303.657 942.581 344.824 937.243 376.39 933.134 410.481 929.612 446.322 925.432 574.446 911.293 719.518 895.236 816.273 859.165 862.278 842.176 878.793 795.174 896.088 745.958 920.292 677.32 945.589 606.275 1051.12 598.862 1210.49 587.725 1372.87 561.319 1516.97 471.571 1599.96 420.321 1676.67 347.918 1743.96 245.107ZM1751.74 266.612C1781.38 222.663 1796.82 167.692 1811.6 114.43 1831.61 43.2203 1850.37-23.7548 1900.29-58.7333L1898.93-60.912C1848.08-25.3519 1829.39 42.4395 1809.07 113.843 1794.1 166.794 1778.97 221.571 1749.64 265.326 1656.96 402.96 1545.27 497.578 1407.36 554.96 1295.74 601.151 1169.08 623.883 997.325 627.616 881.967 630.349 873.291 710.049 865.008 786.913 859.248 841.471 853.687 892.882 809.039 912.05 719.742 950.387 554.014 953.391 421.166 955.786 388.285 956.395 357.541 956.968 330.955 957.976 298.15 959.401 262.566 948.735 228.186 938.614 186.035 926.422 146.722 914.622 111.768 923.001 29.7693 942.538 31.9429 1043.13 33.2264 1116.62 33.8462 1142.59 34.2777 1164.78 30.7204 1177.79L33.2458 1178.38C36.9204 1164.86 36.2952 1142.36 35.9865 1116.2 34.4683 1043.71 32.7588 944.564 112.309 925.256 146.135 917.148 185.76 928.753 227.094 941.022 261.474 951.143 297.37 961.615 330.68 960.307 357.265 959.3 388.009 958.726 420.891 958.117 554.243 955.84 719.972 952.836 809.891 914.112 855.472 894.362 861.268 841.941 867.457 786.683 875.505 710.83 884.14 632.451 997.049 629.947 1169.43 625.827 1296.28 603.406 1408.21 557.021 1445 541.883 1480.05 523.943 1513.35 503.202 1605.16 446.019 1683.79 367.673 1751.74 266.612ZM1759.51 288.117C1791.26 241.995 1806.71 183.565 1821.49 126.844 1840.1 54.7769 1858.09-13.4434 1907.5-48.5392L1906.14-50.7178C1855.99-14.729 1838.2 53.8022 1818.96 126.257 1804.3 182.473 1789.05 241.214 1757.42 286.831 1655.04 435.254 1533.39 536.075 1385.8 593.87 1265.71 641.019 1125.18 661.591 943.253 658.701 902.173 657.937 873.708 667.025 855.605 686.508 825.823 718.447 830.827 773.645 835.99 827.016 841.53 887.927 847.075 945.379 802.85 967.308 712.844 1012.13 491.374 994.995 358.819 984.682 343.896 983.609 329.79 982.459 317.704 981.78 293.337 980.109 265.793 972.642 236.54 964.512 192.252 952.355 146.449 939.846 111.26 949.235 32.8735 970.41 40.4747 1079.71 45.2581 1151.89 46.6233 1173.51 47.8765 1192.16 46.4214 1203L49.258 1203.4C51.0244 1192.36 49.5773 1173.39 48.2121 1151.78 43.5051 1080.42 36.3681 972.553 112.306 951.607 146.678 942.295 192.481 954.804 236.264 966.844 265.517 974.974 293.061 982.441 317.739 983.917 330.019 984.908 343.932 985.746 358.854 986.819 491.41 997.133 713.695 1014.2 804.013 969.175 806.074 968.324 807.942 967.161 809.809 965.997 849.335 941.38 844.254 885.366 838.556 826.281 833.781 773.533 828.659 718.84 857.702 687.793 875.065 669.204 903.218 660.309 943.288 660.839 1125.72 663.846 1266.56 643.081 1386.97 595.737 1429.71 579.053 1470.12 558.634 1508.71 534.598 1603.52 475.982 1686.43 394.106 1759.51 288.117ZM808.258 865.022C793.346 807.788 777.893 748.298 803.905 716.547 819.131 697.993 846.544 689.991 888.399 692 1083.33 701.907 1234.79 683.606 1364.79 635.034 1522.29 575.818 1653.98 469.61 1766.79 309.505 1800.83 261.52 1815.78 199.514 1830.25 139.528 1848.09 66.2161 1864.68-2.86145 1913.7-38.5797L1912.04-40.5644C1862.39-4.45837 1845.37 65.3178 1827.72 138.941 1813.25 198.927 1798.11 260.622 1764.69 308.219 1652.31 467.625 1521.13 573.95 1363.74 632.662 1234.24 681.351 1083.11 699.458 888.481 689.358 845.616 687.114 817.58 695.503 801.926 714.756 775.174 747.4 790.703 807.706 805.691 865.756 822.96 932.322 839.223 995.193 797.829 1020.97 797.207 1021.36 796.584 1021.75 795.962 1022.14 757.839 1044.15 674.617 1050.63 555.469 1041.04 464.03 1033.62 363.392 1017.69 303.87 1004.65 290.932 1001.91 275.704 997.571 259.465 992.998 210.437 979.473 148.901 962.509 110.171 974.535 35.1615 998.358 50.3169 1123.26 58.2946 1190.86 60.3286 1207.3 61.863 1220.17 61.6173 1228.1L64.2601 1228.18C64.3119 1219.94 62.7775 1207.07 60.7435 1190.63 52.7249 1124.35 37.8398 1000.58 111.293 977.724 149.206 965.774 210.238 982.621 258.954 996.34 275.193 1000.91 290.422 1005.25 303.671 1007.8 402.512 1029.17 705.317 1077.73 797.395 1025.13 798.018 1024.74 798.64 1024.36 799.263 1023.97 842.33 996.714 825.179 929.643 808.258 865.022ZM791.441 1079.38C836.417 1049.64 806.492 974.543 777.495 902.323 752.757 840.41 727.167 776.435 750.848 744.408 764.324 726.512 791.502 719.52 834.638 722.892 1042.08 739.697 1203.82 724.056 1343.24 673.944 1510.53 613.81 1651.56 501.787 1774.56 331.01 1810.4 281.046 1825.35 215.581 1839.52 152.329 1856.27 77.9663 1872.08 7.6441 1920.61-28.1916L1919.44-30.059C1869.99 6.35828 1854.06 77.1855 1837.19 152.054 1822.82 214.994 1808.19 280.265 1772.47 329.724 1649.89 499.802 1509.17 611.631 1342.38 671.883 1203.28 721.801 1041.85 737.249 834.914 720.56 790.768 716.954 762.656 724.527 748.752 743.122 724.214 776.547 748.757 838.149 775.123 903.369 803.538 974.655 832.999 1048.31 790.084 1077.2 744.057 1108.03 616.441 1095.93 544.71 1086.18 434.782 1071.28 332.023 1045 291.241 1028.07 252.167 1011.8 156.679 984.014 109.975 1000.57 34.4545 1027.74 63.5964 1180.65 74.5444 1237.76 75.7785 1243.9 76.9361 1249.23 77.4357 1252.8L80.1959 1252.38C79.5024 1248.49 78.5386 1243.48 77.3046 1237.33 66.5504 1180.53 37.7552 1029.57 110.903 1003.45 152.786 988.166 240.821 1010.23 290.031 1030.98 376.218 1066.72 706.046 1133 789.768 1080.85 790.196 1080.15 790.819 1079.77 791.441 1079.38Z" fill="url(#fill4)" fill-opacity="0.4"/></g></g></g></g></svg>