<?xml version="1.0" encoding="UTF-8" standalone="no"?>
<!-- Generator: Adobe Illustrator 17.0.0, SVG Export Plug-In . SVG Version: 6.00 Build 0)  -->

<svg
   version="1.1"
   xml:space="preserve"
   sodipodi:docname="Web-Header-Background.svg"
   inkscape:version="1.1.1 (3bf5ae0d25, 2021-09-20, custom)"
   id="svg38"
   xmlns:inkscape="http://www.inkscape.org/namespaces/inkscape"
   xmlns:sodipodi="http://sodipodi.sourceforge.net/DTD/sodipodi-0.dtd"
   xmlns:xlink="http://www.w3.org/1999/xlink"
   xmlns="http://www.w3.org/2000/svg"
   xmlns:svg="http://www.w3.org/2000/svg"><defs
   id="defs30"><linearGradient
     inkscape:collect="always"
     id="linearGradient2159"><stop
       style="stop-color:#00ff6d;stop-opacity:1;"
       offset="0"
       id="stop2155" /><stop
       style="stop-color:#00ff6d;stop-opacity:0;"
       offset="1"
       id="stop2157" /></linearGradient><linearGradient
     inkscape:collect="always"
     id="linearGradient1381"><stop
       style="stop-color:#00ff00;stop-opacity:1;"
       offset="0"
       id="stop1377" /><stop
       style="stop-color:#00ff00;stop-opacity:0;"
       offset="1"
       id="stop1379" /></linearGradient><linearGradient
     inkscape:collect="always"
     id="linearGradient1373"><stop
       style="stop-color:#ff00ff;stop-opacity:1;"
       offset="0"
       id="stop1369" /><stop
       style="stop-color:#ff00ff;stop-opacity:0;"
       offset="1"
       id="stop1371" /></linearGradient><linearGradient
     inkscape:collect="always"
     id="linearGradient1361"><stop
       style="stop-color:#00ffff;stop-opacity:1;"
       offset="0"
       id="stop1357" /><stop
       style="stop-color:#00ffff;stop-opacity:0;"
       offset="1"
       id="stop1359" /></linearGradient><linearGradient
     inkscape:collect="always"
     xlink:href="#linearGradient1373"
     id="linearGradient1375"
     x1="-306.302"
     y1="246.95345"
     x2="1892.918"
     y2="246.95345"
     gradientUnits="userSpaceOnUse" /><linearGradient
     inkscape:collect="always"
     xlink:href="#linearGradient1381"
     id="linearGradient1383"
     x1="-207.292"
     y1="270.95595"
     x2="1991.928"
     y2="270.95595"
     gradientUnits="userSpaceOnUse" /><radialGradient
     inkscape:collect="always"
     xlink:href="#linearGradient1361"
     id="radialGradient1389"
     cx="991.93201"
     cy="237.95354"
     fx="991.93201"
     fy="237.95354"
     r="1099.006"
     gradientTransform="matrix(1,0,0,0.26314646,0,175.3369)"
     gradientUnits="userSpaceOnUse" /><linearGradient
     inkscape:collect="always"
     xlink:href="#linearGradient1373"
     id="linearGradient1375-2"
     x1="-306.302"
     y1="246.95345"
     x2="1892.918"
     y2="246.95345"
     gradientUnits="userSpaceOnUse" /><linearGradient
     inkscape:collect="always"
     xlink:href="#linearGradient1373"
     id="linearGradient1375-9"
     x1="-306.302"
     y1="246.95345"
     x2="1892.918"
     y2="246.95345"
     gradientUnits="userSpaceOnUse" /><linearGradient
     inkscape:collect="always"
     xlink:href="#linearGradient1373"
     id="linearGradient1412-6"
     gradientUnits="userSpaceOnUse"
     x1="889.90112"
     y1="52.56517"
     x2="889.90112"
     y2="492.56516"
     gradientTransform="matrix(1.0365618,0,0,1,6837.5317,782.84092)" /><linearGradient
     inkscape:collect="always"
     xlink:href="#linearGradient1373"
     id="linearGradient2963"
     gradientUnits="userSpaceOnUse"
     x1="-306.302"
     y1="246.95345"
     x2="1892.918"
     y2="246.95345" /><linearGradient
     inkscape:collect="always"
     xlink:href="#linearGradient1373"
     id="linearGradient2965"
     gradientUnits="userSpaceOnUse"
     x1="-306.302"
     y1="246.95345"
     x2="1892.918"
     y2="246.95345" /><linearGradient
     inkscape:collect="always"
     xlink:href="#linearGradient1381"
     id="linearGradient1383-0"
     x1="-207.29201"
     y1="270.95596"
     x2="1991.928"
     y2="270.95596"
     gradientUnits="userSpaceOnUse" /><linearGradient
     inkscape:collect="always"
     xlink:href="#linearGradient1381"
     id="linearGradient1383-0-2"
     x1="-207.29201"
     y1="270.95596"
     x2="1991.928"
     y2="270.95596"
     gradientUnits="userSpaceOnUse" /><linearGradient
     inkscape:collect="always"
     xlink:href="#linearGradient2159"
     id="linearGradient2161-1-7"
     x1="1449.4729"
     y1="232.15909"
     x2="1449.4729"
     y2="472.15909"
     gradientUnits="userSpaceOnUse"
     gradientTransform="matrix(1.0365618,0,0,1,6802.5317,-32.159083)" /><linearGradient
     inkscape:collect="always"
     xlink:href="#linearGradient1381"
     id="linearGradient3329"
     gradientUnits="userSpaceOnUse"
     x1="-207.29201"
     y1="270.95596"
     x2="1991.928"
     y2="270.95596" /><linearGradient
     inkscape:collect="always"
     xlink:href="#linearGradient1381"
     id="linearGradient3331"
     gradientUnits="userSpaceOnUse"
     x1="-207.29201"
     y1="270.95596"
     x2="1991.928"
     y2="270.95596" /><radialGradient
     inkscape:collect="always"
     xlink:href="#linearGradient1361"
     id="radialGradient1389-4"
     cx="991.93201"
     cy="237.95354"
     fx="991.93201"
     fy="237.95354"
     r="1099.006"
     gradientTransform="matrix(1,0,0,0.26314646,0,175.3369)"
     gradientUnits="userSpaceOnUse" /><radialGradient
     inkscape:collect="always"
     xlink:href="#linearGradient1361"
     id="radialGradient1389-4-6"
     cx="991.93201"
     cy="237.95354"
     fx="991.93201"
     fy="237.95354"
     r="1099.006"
     gradientTransform="matrix(1,0,0,0.26314646,0,175.3369)"
     gradientUnits="userSpaceOnUse" /><linearGradient
     inkscape:collect="always"
     xlink:href="#linearGradient1361"
     id="linearGradient1391-0-9"
     x1="935.66718"
     y1="-15.34092"
     x2="935.66718"
     y2="464.65909"
     gradientUnits="userSpaceOnUse"
     gradientTransform="matrix(1.0365618,0,0,1,6758.5317,-637.15908)" /><radialGradient
     inkscape:collect="always"
     xlink:href="#linearGradient1361"
     id="radialGradient1389-5"
     cx="991.93201"
     cy="237.95354"
     fx="991.93201"
     fy="237.95354"
     r="1099.006"
     gradientTransform="matrix(1,0,0,0.26314646,0,175.3369)"
     gradientUnits="userSpaceOnUse" /></defs><sodipodi:namedview
   id="namedview28"
   pagecolor="#ffffff"
   bordercolor="#666666"
   borderopacity="1.0"
   preserveAspectRatio="none"
   inkscape:pageshadow="2"
   inkscape:pageopacity="0.0"
   inkscape:pagecheckerboard="0"
   showgrid="false"
   inkscape:zoom="0.069258821"
   inkscape:cx="3826.2274"
   inkscape:cy="534.22798"
   inkscape:window-x="0"
   inkscape:window-y="0"
   inkscape:window-maximized="1"
   inkscape:current-layer="svg38"
   inkscape:window-width="1280"
   inkscape:window-height="730"
   showguides="false"
   inkscape:object-nodes="true"
   inkscape:snap-global="true"
   inkscape:snap-bbox="true"
   inkscape:bbox-nodes="true"><inkscape:grid
     type="xygrid"
     id="grid4348" /></sodipodi:namedview>
	
<g
   id="Layer_1_copy_2"
   style="opacity:0.453283;fill:url(#linearGradient1383);fill-opacity:1;stroke:#d57707;stroke-width:4.91102793;stroke-miterlimit:4;stroke-dasharray:4.91102793,39.28822347;stroke-dashoffset:0;stroke-opacity:0.52548999"
   transform="matrix(1.0365618,0,0,1,-22.468285,-32.159083)">
	<linearGradient
   id="SVGID_1_"
   gradientUnits="userSpaceOnUse"
   x1="-207.2916"
   y1="270.95621"
   x2="1991.9283"
   y2="270.95621"
   style="fill:url(#linearGradient1383);fill-opacity:1">
		<stop
   offset="0"
   style="stop-color:#FF1902;fill-opacity:1;fill:url(#linearGradient1383)"
   id="stop2" />
		<stop
   offset="1"
   style="stop-color:#FF1902;stop-opacity:0;fill-opacity:1;fill:url(#linearGradient1383)"
   id="stop4" />
	</linearGradient>
	
</g><g
   id="Layer_1_copy_2-3"
   style="opacity:0.453283;fill:url(#linearGradient1383-0);fill-opacity:1;stroke:#d57707;stroke-width:4.91102793;stroke-miterlimit:4;stroke-dasharray:4.91102793,39.28822347;stroke-dashoffset:0;stroke-opacity:0.52548999"
   transform="matrix(1.0365618,0,0,1,2252.5317,-32.159083)"><linearGradient
     id="linearGradient3053"
     gradientUnits="userSpaceOnUse"
     x1="-207.2916"
     y1="270.95621"
     x2="1991.9283"
     y2="270.95621"
     style="fill:url(#linearGradient1383-0);fill-opacity:1"><stop
       offset="0"
       style="stop-color:#FF1902;fill-opacity:1;fill:url(#linearGradient1383-0)"
       id="stop2-2" /><stop
       offset="1"
       style="stop-color:#FF1902;stop-opacity:0;fill-opacity:1;fill:url(#linearGradient1383-0)"
       id="stop4-0" /></linearGradient></g><g
   id="Layer_1_copy_2-7"
   style="opacity:0.453283;fill:url(#linearGradient3329);fill-opacity:1;stroke:#d57707;stroke-width:4.91102793;stroke-miterlimit:4;stroke-dasharray:4.91102793,39.28822347;stroke-dashoffset:0;stroke-opacity:0.52548999"
   transform="matrix(1.0365618,0,0,1,4527.5317,-32.159083)"><linearGradient
     id="linearGradient3316"
     gradientUnits="userSpaceOnUse"
     x1="-207.2916"
     y1="270.95621"
     x2="1991.9283"
     y2="270.95621"
     style="fill:url(#linearGradient1383-0-2);fill-opacity:1"><stop
       offset="0"
       style="stop-color:#FF1902;fill-opacity:1;fill:url(#linearGradient1383-0-2)"
       id="stop2-8" /><stop
       offset="1"
       style="stop-color:#FF1902;stop-opacity:0;fill-opacity:1;fill:url(#linearGradient1383-0-2)"
       id="stop4-6" /></linearGradient></g><g
   id="Layer_1_copy_2-3-8"
   style="opacity:0.453283;fill:url(#linearGradient3331);fill-opacity:1;stroke:#ffaa43;stroke-width:4.91102793;stroke-miterlimit:4;stroke-dasharray:4.91102793, 39.28822347;stroke-dashoffset:0;stroke-opacity:0.52548999"
   transform="matrix(1.0365618,0,0,1,6802.5317,-32.159083)"><linearGradient
   id="linearGradient3322"
   gradientUnits="userSpaceOnUse"
   x1="-207.2916"
   y1="270.95621"
   x2="1991.9283"
   y2="270.95621"
   style="fill:url(#linearGradient1383-0-2);fill-opacity:1"><stop
     offset="0"
     style="stop-color:#FF1902;fill-opacity:1;fill:url(#linearGradient1383-0-2)"
     id="stop2-2-4" /><stop
     offset="1"
     style="stop-color:#FF1902;stop-opacity:0;fill-opacity:1;fill:url(#linearGradient1383-0-2)"
     id="stop4-0-3" /></linearGradient><path
   id="path7-6-1"
   style="fill:url(#linearGradient2161-1-7);fill-opacity:1;stroke:#ffaa43;stroke-width:5.00000001;stroke-miterlimit:4;stroke-dasharray:5.00000001, 40.0000001;stroke-dashoffset:0;stroke-opacity:0.52548999"
   d="M -235 -70 L -235 484 C -235 484 -10.936679 417.64534 234.375 486.65234 L 234.42773 486.66602 C 357.48421 521.27702 486.96192 539.81969 614.67773 522.55469 C 756.08239 503.43969 883.01603 457.3367 1026.918 487.2207 C 1138.8115 510.4577 1231.0342 570.93175 1349.7949 540.71875 C 1477.1842 508.30975 1587.1647 457.03572 1722.1113 464.26172 C 1837.4413 470.43772 1926.142 515.662 2040 475 L 2040 484 C 2040 484 2264.0633 417.64534 2509.375 486.65234 L 2509.4277 486.66602 C 2632.4842 521.27702 2761.9619 539.81969 2889.6777 522.55469 C 3031.0824 503.43969 3158.0162 457.3367 3301.918 487.2207 C 3413.8117 510.4577 3506.034 570.93175 3624.7949 540.71875 C 3752.1842 508.30975 3862.1645 457.03572 3997.1113 464.26172 C 4112.4413 470.43772 4201.142 515.662 4315 475 L 4315 484 C 4315 484 4539.0633 417.64534 4784.375 486.65234 L 4784.4277 486.66602 C 4907.4842 521.27702 5036.9619 539.81969 5164.6777 522.55469 C 5306.0825 503.43969 5433.0161 457.3367 5576.918 487.2207 C 5688.8117 510.4577 5781.034 570.93175 5899.7949 540.71875 C 6027.1842 508.30975 6137.1645 457.03572 6272.1113 464.26172 C 6387.4413 470.43772 6476.142 515.662 6590 475 L 6590 484 C 6590 484 6814.0633 417.64534 7059.375 486.65234 L 7059.4277 486.66602 C 7182.4842 521.27702 7311.9619 539.81969 7439.6777 522.55469 C 7581.0824 503.43969 7708.0162 457.3367 7851.918 487.2207 C 7963.8117 510.4577 8056.034 570.93175 8174.7949 540.71875 C 8302.1842 508.30975 8412.1645 457.03572 8547.1113 464.26172 C 8662.4413 470.43772 8751.142 515.662 8865 475 L 8865 -70 L 6590 -70 L 4315 -70 L 2040 -70 L -235 -70 z "
   transform="matrix(0.96472781,0,0,1,-6562.5915,32.159083)" />		<animateTransform
   attributeName="transform"
   attributeType="XML"
   type="translate"
   dur="50"
   values="5000,0;5500,0;5000,0;"
   repeatCount="indefinite"
   style="fill-opacity:1;fill:url(#linearGradient2161)" /></g>
<g
   id="Layer_1_copy"
   style="opacity:0.732988;fill:url(#linearGradient1375);fill-opacity:1;stroke:#d57707;stroke-width:4.82363905;stroke-miterlimit:4;stroke-dasharray:4.82363905,57.88366858;stroke-dashoffset:0;stroke-opacity:0.52548999"
   transform="matrix(1.0365618,0,0,1,-2.4682438,782.84092)">
	<linearGradient
   id="SVGID_2_"
   gradientUnits="userSpaceOnUse"
   x1="-306.30151"
   y1="246.9538"
   x2="1892.9183"
   y2="246.9538"
   style="fill:url(#linearGradient1375);fill-opacity:1">
		<stop
   offset="0"
   style="stop-color:#FF1902;fill-opacity:1;fill:url(#linearGradient1375)"
   id="stop10" />
		<stop
   offset="1"
   style="stop-color:#FF1902;stop-opacity:0;fill-opacity:1;fill:url(#linearGradient1375)"
   id="stop12" />
	</linearGradient>
	
</g><g
   id="Layer_1_copy-9"
   style="opacity:0.732988;fill:url(#linearGradient1375-2);fill-opacity:1;stroke:#d57707;stroke-width:4.82364;stroke-miterlimit:4;stroke-dasharray:4.82364, 57.8837;stroke-dashoffset:0;stroke-opacity:0.52549"
   transform="matrix(1.0365618,0,0,1,2277.5318,782.84092)"><linearGradient
     id="linearGradient2803"
     gradientUnits="userSpaceOnUse"
     x1="-306.30151"
     y1="246.9538"
     x2="1892.9183"
     y2="246.9538"
     style="fill:url(#linearGradient1375-2);fill-opacity:1"><stop
       offset="0"
       style="stop-color:#FF1902;fill-opacity:1;fill:url(#linearGradient1375-2)"
       id="stop10-2" /><stop
       offset="1"
       style="stop-color:#FF1902;stop-opacity:0;fill-opacity:1;fill:url(#linearGradient1375-2)"
       id="stop12-2" /></linearGradient></g><g
   id="Layer_1_copy-93"
   style="opacity:0.732988;fill:url(#linearGradient2963);fill-opacity:1;stroke:#d57707;stroke-width:4.82364;stroke-miterlimit:4;stroke-dasharray:4.82364, 57.8837;stroke-dashoffset:0;stroke-opacity:0.52549"
   transform="matrix(1.0365618,0,0,1,4557.5317,782.84092)"><linearGradient
     id="linearGradient2950"
     gradientUnits="userSpaceOnUse"
     x1="-306.30151"
     y1="246.9538"
     x2="1892.9183"
     y2="246.9538"
     style="fill:url(#linearGradient1375-9);fill-opacity:1"><stop
       offset="0"
       style="stop-color:#FF1902;fill-opacity:1;fill:url(#linearGradient1375-9)"
       id="stop10-1" /><stop
       offset="1"
       style="stop-color:#FF1902;stop-opacity:0;fill-opacity:1;fill:url(#linearGradient1375-9)"
       id="stop12-9" /></linearGradient></g><g
   id="Layer_1_copy-9-7"
   style="opacity:0.354412;fill:url(#linearGradient2965);fill-opacity:1;stroke:#ff8b00;stroke-width:4.91103;stroke-miterlimit:4;stroke-dasharray:4.91103, 58.9323;stroke-dashoffset:0;stroke-opacity:0.52549"
   transform="matrix(1.0365618,0,0,1,6837.5317,2.84092)"><linearGradient
   id="linearGradient2956"
   gradientUnits="userSpaceOnUse"
   x1="-306.30151"
   y1="246.9538"
   x2="1892.9183"
   y2="246.9538"
   style="fill:url(#linearGradient1375-9);fill-opacity:1"><stop
     offset="0"
     style="stop-color:#FF1902;fill-opacity:1;fill:url(#linearGradient1375-9)"
     id="stop10-2-8" /><stop
     offset="1"
     style="stop-color:#FF1902;stop-opacity:0;fill-opacity:1;fill:url(#linearGradient1375-9)"
     id="stop12-2-4" /></linearGradient><path
   id="path15-8-5"
   style="fill:url(#linearGradient1412-6);fill-opacity:1;stroke:#ff8b00;stroke-width:5;stroke-miterlimit:4;stroke-dasharray:5, 60;stroke-dashoffset:0;stroke-opacity:0.52549"
   d="m -320,720 -0.0312,555.4062 c 0,0 226.432462,-66.3585 471.74414,2.6485 l 0.0527,0.016 c 123.05648,34.611 252.53419,53.1517 380.25,35.8867 141.40466,-19.115 268.34046,-65.218 412.24219,-35.334 111.89247,23.237 204.11577,83.7111 322.87697,53.4981 127.3893,-32.409 237.3675,-83.683 372.3144,-76.457 115.3194,6.1754 206.6752,50.986 320.5196,10.3437 v 9.3984 c 0,0 226.4323,-66.3585 471.7441,2.6485 l 0.053,0.016 c 123.0565,34.611 252.5343,53.1517 380.25,35.8867 141.4049,-19.115 268.3406,-65.218 412.2422,-35.334 111.8927,23.237 204.1158,83.7111 322.877,53.4981 127.3893,-32.409 237.3675,-83.683 372.3144,-76.457 115.3194,6.1754 206.6751,50.986 320.5196,10.3437 v 9.3984 c 0,0 226.4323,-66.3585 471.7441,2.6485 l 0.053,0.018 c 123.0565,34.611 252.5343,53.1517 380.25,35.8867 141.4048,-19.115 268.3405,-65.218 412.2422,-35.334 111.8927,23.237 204.1159,83.711 322.877,53.498 127.3893,-32.409 237.3675,-83.683 372.3144,-76.457 115.3193,6.1754 206.6752,50.9861 320.5196,10.3438 v 9.3964 c 0,0 226.4324,-66.3585 471.7441,2.6485 l 0.053,0.016 c 123.0565,34.611 252.5342,53.1517 380.25,35.8867 141.4047,-19.115 268.3405,-65.218 412.2422,-35.334 111.8927,23.237 204.116,83.7111 322.877,53.4981 127.3893,-32.409 237.3675,-83.683 372.3144,-76.457 115.33,6.176 206.6917,50.9979 320.5508,10.3359 V 720 H 6520 4240 1960 Z"
   transform="matrix(0.96472781,0,0,1,-6596.357,-782.84092)" />		<animateTransform
   attributeName="transform"
   attributeType="XML"
   type="translate"
   dur="50"
   values="5000,0;5700,0;5000,0;"
   repeatCount="indefinite"
   style="fill-opacity:1;fill:url(#linearGradient2161)" /></g>
<g
   id="Layer_1"
   style="opacity:0.552259;fill:url(#radialGradient1389);fill-opacity:1;stroke:#000000;stroke-width:19.64411173;stroke-miterlimit:4;stroke-dasharray:19.64411173, 157.15289388;stroke-dashoffset:0;stroke-opacity:0.52548999"
   transform="matrix(1.0365618,0,0,1,-52.468345,-637.15908)">
	<linearGradient
   id="SVGID_3_"
   gradientUnits="userSpaceOnUse"
   x1="-107.0737"
   y1="237.9529"
   x2="2090.9382"
   y2="237.9529"
   style="fill:url(#radialGradient1389);fill-opacity:1">
		<stop
   offset="0"
   style="stop-color:#FF1902;fill-opacity:1;fill:url(#radialGradient1389)"
   id="stop18" />
		<stop
   offset="1"
   style="stop-color:#FF1902;stop-opacity:0;fill-opacity:1;fill:url(#radialGradient1389)"
   id="stop20" />
	</linearGradient>
	
</g><g
   id="Layer_1-6"
   style="opacity:0.552259;fill:url(#radialGradient1389-4);fill-opacity:1;stroke:#000000;stroke-width:19.6441;stroke-miterlimit:4;stroke-dasharray:19.6441, 157.153;stroke-dashoffset:0;stroke-opacity:0.52549"
   transform="matrix(1.0365618,0,0,1,2216.5317,-637.15908)"><linearGradient
     id="linearGradient3422"
     gradientUnits="userSpaceOnUse"
     x1="-107.0737"
     y1="237.9529"
     x2="2090.9382"
     y2="237.9529"
     style="fill:url(#radialGradient1389-4);fill-opacity:1"><stop
       offset="0"
       style="stop-color:#FF1902;fill-opacity:1;fill:url(#radialGradient1389-4)"
       id="stop18-8" /><stop
       offset="1"
       style="stop-color:#FF1902;stop-opacity:0;fill-opacity:1;fill:url(#radialGradient1389-4)"
       id="stop20-9" /></linearGradient></g><g
   id="Layer_1-8"
   style="opacity:0.552259;fill:url(#radialGradient1389-5);fill-opacity:1;stroke:#000000;stroke-width:19.6441;stroke-miterlimit:4;stroke-dasharray:19.6441, 157.153;stroke-dashoffset:0;stroke-opacity:0.52549"
   transform="matrix(1.0365618,0,0,1,4489.5317,-637.15908)"><linearGradient
     id="linearGradient3570"
     gradientUnits="userSpaceOnUse"
     x1="-107.0737"
     y1="237.9529"
     x2="2090.9382"
     y2="237.9529"
     style="fill:url(#radialGradient1389-5);fill-opacity:1"><stop
       offset="0"
       style="stop-color:#FF1902;fill-opacity:1;fill:url(#radialGradient1389-5)"
       id="stop18-7" /><stop
       offset="1"
       style="stop-color:#FF1902;stop-opacity:0;fill-opacity:1;fill:url(#radialGradient1389-5)"
       id="stop20-1" /></linearGradient></g><g
   id="Layer_1-6-2"
   style="opacity:0.24640778;fill:url(#radialGradient1389-4-6);fill-opacity:1;stroke:#ffb76c;stroke-width:19.6441;stroke-miterlimit:4;stroke-dasharray:19.6441, 157.153;stroke-dashoffset:0;stroke-opacity:0.52549"
   transform="matrix(1.0365618,0,0,1,6758.5317,-13.15908)"><linearGradient
   id="linearGradient3576"
   gradientUnits="userSpaceOnUse"
   x1="-107.0737"
   y1="237.9529"
   x2="2090.9382"
   y2="237.9529"
   style="fill:url(#radialGradient1389-4-6);fill-opacity:1"><stop
     offset="0"
     style="stop-color:#FF1902;fill-opacity:1;fill:url(#radialGradient1389-4-6)"
     id="stop18-8-7" /><stop
     offset="1"
     style="stop-color:#FF1902;stop-opacity:0;fill-opacity:1;fill:url(#radialGradient1389-4-6)"
     id="stop20-9-2" /></linearGradient><path
   id="path23-2-2"
   style="fill:url(#linearGradient1391-0-9);fill-opacity:1;stroke:#ffb76c;stroke-width:5;stroke-miterlimit:4;stroke-dasharray:5, 40;stroke-dashoffset:0;stroke-opacity:0.52549"
   d="m -160,-690 v 520 c 0,0 221.692227,-62.46781 467.00391,1.86719 0.0176,0.005 0.0351,0.0106 0.0527,0.0156 123.05647,32.268 252.53418,49.55203 380.25,33.45703 141.40465,-17.821 268.34046,-60.8034 412.24219,-32.9414 111.8939,21.664 204.116,78.045951 322.877,49.87695 127.3893,-30.215 237.3676,-78.01825 372.3144,-71.28125 113.2849,5.6559 203.203,45.69682 314.2598,11.20313 V -170 c 0,0 221.6922,-62.46781 467.0039,1.86719 0.018,0.005 0.035,0.0106 0.053,0.0156 123.0566,32.268 252.5342,49.55203 380.25,33.45703 141.4047,-17.821 268.3405,-60.8034 412.2422,-32.9414 111.8939,21.664 204.116,78.045951 322.877,49.87695 127.3893,-30.215 237.3676,-78.01825 372.3144,-71.28125 114.6672,5.72491 205.3157,46.96036 318.2598,10.17774 V -170 c 0,0 221.6922,-62.46781 467.0039,1.86719 0.018,0.005 0.035,0.0106 0.053,0.0156 123.0566,32.268 252.5342,49.55203 380.25,33.45703 141.4047,-17.821 268.3405,-60.8034 412.2422,-32.9414 111.8938,21.664 204.116,78.045951 322.877,49.87695 127.3893,-30.215 237.3676,-78.01825 372.3144,-71.28125 113.285,5.6559 203.2027,45.69683 314.2598,11.20313 V -170 c 0,0 221.6922,-62.46781 467.0039,1.86719 0.018,0.005 0.035,0.0106 0.053,0.0156 123.0565,32.268 252.5342,49.55203 380.25,33.45703 141.4047,-17.821 268.3405,-60.8034 412.2422,-32.9414 111.8938,21.664 204.116,78.045951 322.877,49.87695 127.3893,-30.215 237.3676,-78.01825 372.3144,-71.28125 115.33,5.758 206.3197,47.59355 320.1778,9.68555 L 8926,-690 h -2269 -6 -2267 -2 -2267 -6 z"
   transform="matrix(0.96472781,0,0,1,-6520.1435,637.15908)" />
     
     		<animateTransform
   attributeName="transform"
   attributeType="XML"
   type="translate"
   dur="50"
   values="5000,0;5900,0;5000,0;"
   repeatCount="indefinite"
   style="fill-opacity:1;fill:url(#linearGradient2161)" /></g>
</svg>
