<?xml version="1.0" encoding="UTF-8" standalone="no"?>
<!-- Generator: Adobe Illustrator 23.0.3, SVG Export Plug-In . SVG Version: 6.00 Build 0)  -->

<svg
   version="1.1"
   id="Icons"
   x="0px"
   y="0px"
   viewBox="0 0 32 32"
   style="enable-background:new 0 0 32 32;"
   xml:space="preserve"
   sodipodi:docname="convenience.svg"
   inkscape:version="1.1.1 (3bf5ae0d25, 2021-09-20, custom)"
   xmlns:inkscape="http://www.inkscape.org/namespaces/inkscape"
   xmlns:sodipodi="http://sodipodi.sourceforge.net/DTD/sodipodi-0.dtd"
   xmlns:xlink="http://www.w3.org/1999/xlink"
   xmlns="http://www.w3.org/2000/svg"
   xmlns:svg="http://www.w3.org/2000/svg"><defs
   id="defs25"><linearGradient
     inkscape:collect="always"
     xlink:href="#linearGradient2422"
     id="linearGradient2424"
     x1="193.32587"
     y1="348.20627"
     x2="195.28218"
     y2="184.76242"
     gradientUnits="userSpaceOnUse" /><linearGradient
     inkscape:collect="always"
     id="linearGradient2422"><stop
       style="stop-color:#cd0000;stop-opacity:1;"
       offset="0"
       id="stop2418" /><stop
       style="stop-color:#cd0000;stop-opacity:0;"
       offset="1"
       id="stop2420" /></linearGradient><filter
     inkscape:collect="always"
     style="color-interpolation-filters:sRGB"
     id="filter995"
     x="-0.082173255"
     y="-0.11872654"
     width="1.1643465"
     height="1.2374531"><feGaussianBlur
       inkscape:collect="always"
       stdDeviation="10.76294"
       id="feGaussianBlur997" /></filter></defs><sodipodi:namedview
   id="namedview23"
   pagecolor="#ffffff"
   bordercolor="#666666"
   borderopacity="1.0"
   inkscape:pageshadow="2"
   inkscape:pageopacity="0.0"
   inkscape:pagecheckerboard="0"
   showgrid="false"
   inkscape:zoom="7.6527885"
   inkscape:cx="-7.3175941"
   inkscape:cy="31.687796"
   inkscape:window-width="1280"
   inkscape:window-height="730"
   inkscape:window-x="0"
   inkscape:window-y="0"
   inkscape:window-maximized="1"
   inkscape:current-layer="Icons" />
<style
   type="text/css"
   id="style2">
	.st0{fill:none;stroke:#000000;stroke-width:2;stroke-linejoin:round;stroke-miterlimit:10;}
	.st1{fill:none;stroke:#000000;stroke-width:2;stroke-linecap:round;stroke-linejoin:round;stroke-miterlimit:10;}
	.st2{fill:none;stroke:#000000;stroke-width:2;stroke-miterlimit:10;}
</style>
<path
   style="opacity:0.840005;fill:url(#linearGradient2424);fill-opacity:1;stroke:none;stroke-width:11.1634;stroke-linecap:butt;stroke-linejoin:miter;stroke-miterlimit:4;stroke-dasharray:none;stroke-opacity:1;filter:url(#filter995)"
   d="m 40.173907,137.45749 29.310215,176.64163 c 0,0 11.214818,36.79334 129.106488,39.34884 117.89167,2.5555 114.91167,-34.46267 114.91167,-34.46267 l 41.02034,-182.97852 z"
   id="path960"
   transform="matrix(0.08750566,0,0,0.09169932,-0.75007651,-1.0193548)" /><circle
   class="st0"
   cx="16"
   cy="16"
   r="6"
   id="circle4"
   transform="matrix(0.7542487,0,0,0.7542487,3.7241353,3.6251448)" />
<circle
   class="st0"
   cx="25.5"
   cy="9.5"
   r="2.5"
   id="circle6"
   transform="matrix(0.7542487,0,0,0.7542487,3.7241353,3.6251448)" />
<circle
   class="st0"
   cx="5.5"
   cy="5.5"
   r="2.5"
   id="circle8"
   transform="matrix(0.7542487,0,0,0.7542487,3.7241353,3.6251448)" />
<circle
   class="st0"
   cx="7.5"
   cy="26.5"
   r="2.5"
   id="circle10"
   transform="matrix(0.7542487,0,0,0.7542487,3.7241353,3.6251448)" />
<circle
   class="st0"
   cx="26.5"
   cy="23.5"
   r="2.5"
   id="circle12"
   transform="matrix(0.7542487,0,0,0.7542487,3.7241353,3.6251448)" />
<line
   class="st0"
   x1="12.3"
   y1="20.700001"
   x2="9.1000004"
   y2="24.6"
   id="line14"
   transform="matrix(0.7542487,0,0,0.7542487,3.7241353,3.6251448)" />
<line
   class="st0"
   x1="7.3000002"
   y1="7.3000002"
   x2="11.8"
   y2="11.8"
   id="line16"
   transform="matrix(0.7542487,0,0,0.7542487,3.7241353,3.6251448)" />
<line
   class="st0"
   x1="23.5"
   y1="11"
   x2="21"
   y2="12.7"
   id="line18"
   transform="matrix(0.7542487,0,0,0.7542487,3.7241353,3.6251448)" />
<line
   class="st0"
   x1="24.5"
   y1="22"
   x2="20.9"
   y2="19.4"
   id="line20"
   transform="matrix(0.7542487,0,0,0.7542487,3.7241353,3.6251448)" />
</svg>
