<svg viewBox="0 0 128 128" xmlns="http://www.w3.org/2000/svg" xmlns:xlink="http://www.w3.org/1999/xlink" id="Слой_1" overflow="hidden"><path d="M45.23 57.2C39.07 57.2 34.06 62.8 34.06 69.68 34.06 76.56 39.06 82.15 45.23 82.15 51.4 82.15 56.39 76.56 56.39 69.68 56.39 62.8 51.38 57.2 45.23 57.2ZM45.23 78.2C41.23 78.2 38.06 74.4 38.06 69.73 38.06 65.06 41.27 61.25 45.23 61.25 49.19 61.25 52.39 65.05 52.39 69.73 52.39 74.41 49.18 78.15 45.23 78.15Z" fill="#A8A9A8"/><path d="M121.83 59.58C119.094 48.8694 115.232 38.4783 110.31 28.58 110.142 28.2675 109.898 28.0026 109.6 27.81 104.767 24.9338 99.6663 22.5326 94.37 20.64 84.55 17.07 79.91 17 79.72 17 78.7161 16.9901 77.8605 17.726 77.72 18.72L77.12 22.89C68.3814 22.0233 59.5786 22.0233 50.84 22.89L50.24 18.72C50.0995 17.726 49.2439 16.9901 48.24 17 48.05 17 43.41 17 33.59 20.61 28.3063 22.5145 23.2193 24.9258 18.4 27.81 18.1021 28.0026 17.8578 28.2675 17.69 28.58 12.7674 38.4781 8.90592 48.8693 6.17 59.58 1 80.46 0 90.91 0 91.34-0.0491579 91.886 0.127982 92.4283 0.49 92.84 5.63058 98.2762 11.8226 102.611 18.69 105.58 25.0126 108.269 31.6694 110.092 38.48 111 39.2607 111.072 40.0113 110.681 40.4 110L45.8 100.75C51.8119 101.774 57.9016 102.272 64 102.24 70.099 102.266 76.1887 101.761 82.2 100.73L87.6 110C87.9551 110.615 88.6098 110.996 89.32 111L89.52 111C96.3253 110.104 102.979 108.295 109.3 105.62 116.167 102.651 122.359 98.3162 127.5 92.88 127.862 92.4683 128.039 91.926 127.99 91.38 128 90.91 127.05 80.46 121.83 59.58ZM107.77 101.89C102.187 104.209 96.3502 105.86 90.38 106.81L86.3 99.81C90.98 98.57 100.72 95.35 108.13 88.61 108.958 87.8672 109.028 86.5934 108.285 85.765 107.542 84.9366 106.268 84.8672 105.44 85.61 96.44 93.84 82.98 96.45 82.84 96.48L82.78 96.48C76.5924 97.678 70.3024 98.2674 64 98.24 57.6995 98.2872 51.4096 97.7178 45.22 96.54L45.16 96.54C45.02 96.54 31.61 93.9 22.56 85.67 21.7316 84.9272 20.4578 84.9966 19.715 85.825 18.9722 86.6534 19.0416 87.9272 19.87 88.67 27.28 95.41 37.02 98.67 41.7 99.87L37.62 106.87C31.6484 105.927 25.8106 104.275 20.23 101.95 14.1906 99.287 8.7106 95.5036 4.08 90.8 4.41 87.89 5.76 77.73 10.08 60.56 12.7094 50.3365 16.3681 40.4058 21 30.92 25.467 28.3414 30.1516 26.1597 35 24.4 38.7464 22.9605 42.625 21.892 46.58 21.21L46.93 23.6C42.93 24.6 33.08 27.46 25.28 33.13 24.3881 33.7817 24.1933 35.0331 24.845 35.925 25.4967 36.8169 26.7481 37.0117 27.64 36.36 36.46 29.95 48.64 27.3 49.5 27.11 54.3116 26.5335 59.154 26.253 64 26.27 68.8494 26.2507 73.6953 26.5312 78.51 27.11 79.42 27.3 91.51 29.94 100.37 36.36 101.262 37.0117 102.513 36.8169 103.165 35.925 103.817 35.0331 103.622 33.7817 102.73 33.13 94.93 27.46 85.12 24.61 81.08 23.6L81.43 21.21C85.3811 21.8951 89.2561 22.9635 93 24.4 97.8484 26.1597 102.533 28.3414 107 30.92 111.659 40.4027 115.345 50.3335 118 60.56 122.29 77.73 123.64 87.89 124 90.8 119.341 95.4904 113.833 99.2537 107.77 101.89Z" fill="#A8A9A8"/><path d="M82.77 57.2C76.62 57.2 71.61 62.8 71.61 69.68 71.61 76.56 76.61 82.15 82.77 82.15 88.93 82.15 93.94 76.56 93.94 69.68 93.94 62.8 88.93 57.2 82.77 57.2ZM82.77 78.2C78.77 78.2 75.61 74.4 75.61 69.73 75.61 65.06 78.82 61.25 82.77 61.25 86.72 61.25 89.94 65.05 89.94 69.73 89.94 74.41 86.73 78.15 82.77 78.15Z" fill="#A8A9A8"/></svg>