<svg viewBox="0 0 1000 1000" xmlns="http://www.w3.org/2000/svg" xmlns:xlink="http://www.w3.org/1999/xlink" overflow="hidden"><g><path d="M500 10C229.4 10 10 235.1 10 512.5 10 734.5 150.4 922.7 345.1 989.2 348.2 989.9 350.8 990.1 353.4 990.1 371.6 990.1 378.6 976.8 378.6 965.2 378.6 953.2 378.2 921.7 377.9 879.7 359.5 883.9 343.1 885.6 328.5 885.6 234.2 885.6 212.8 812.3 212.8 812.3 190.5 754.3 158.3 738.8 158.3 738.8 115.6 708.8 158.1 708 161.4 708 161.6 708 161.6 708 161.6 708 210.8 712.4 236.6 760.1 236.6 760.1 261.1 803 293.9 815 323.2 815 346.2 815 367 807.6 379.2 801.9 383.6 769.5 396.3 747.4 410.3 734.7 301.6 722 187.2 678.9 187.2 486.4 187.2 431.5 206.2 386.6 237.5 351.6 232.5 338.9 215.6 287.7 242.3 218.6 242.3 218.6 245.8 217.5 253.2 217.5 270.9 217.5 311 224.3 377 270.2 416.2 259 457.9 253.6 499.7 253.4 541.3 253.6 583.3 259.1 622.4 270.2 688.5 224.3 728.5 217.5 746.2 217.5 753.6 217.5 757.1 218.6 757.1 218.6 783.8 287.7 766.9 338.9 761.9 351.6 793.2 386.8 812.2 431.7 812.2 486.4 812.2 679.3 697.6 721.8 588.4 734.2 605.9 749.7 621.7 780.4 621.7 827.2 621.7 894.4 621 948.6 621 965 621 976.8 627.8 990.2 645.9 990.2 648.5 990.2 651.6 990 654.7 989.3 849.8 922.6 990 734.3 990 512.5 990 235.1 770.6 10 500 10ZM328.5 920.2C333.3 920.2 338.1 920 343.2 919.8 343.2 925.9 343.2 931.8 343.4 937.1 343.4 942.4 343.4 947.2 343.6 951.3 309.5 938.6 277.3 921.8 247.1 901 268.6 912.6 295.5 920.2 328.5 920.2ZM353.4 760.8C351.7 765.6 350.1 770.6 348.8 775.9 341.4 778.1 332.4 779.8 323.2 779.8 299.4 779.8 281.6 768 267.2 742.8 261.9 732.7 252.3 719.4 239 707.1 275.8 738 318.4 752.9 353.4 760.8ZM769.1 889.6C734.5 915.6 696.9 936.2 657.5 951.3 657.5 947.1 657.5 942.3 657.5 937.1 657.5 911.1 657.5 871.9 657.5 826.8 657.5 799.7 652.9 777.6 646.6 760.1 728 741.9 847.9 686.4 847.9 485.8 847.9 432 832.4 384.1 801.5 343.4 808.3 315.2 813.5 265.5 790.3 205.6L784.4 190.1 768.6 184.8C765.3 183.7 758.1 182 746.7 182 721.5 182 679.1 191 616.5 231.9 579.3 222.7 540.4 217.9 500.3 217.9L500 217.9 499.8 217.9C459.8 217.9 420.6 222.7 383.6 231.9 321 191 278.6 182 253.4 182 242 182 234.8 184 231.5 185.1L215.7 190.4 209.8 205.9C186.6 266.1 191.9 315.7 198.6 343.7 167.8 384.6 152.2 432.5 152.2 486.1 152.2 594.6 187.2 660.9 232.3 701.6 214.8 687 191.8 675 164.2 673L163.1 673 162 673 161.3 673C132.6 673 112.5 684.8 106.2 705.2 95.9 737.6 127.6 759.9 138.1 767.3L139.2 768.6 142.5 769.9C146 772.1 164.6 785.2 179.5 823.5 183.9 837.1 193.3 855.2 209.3 872.1 180.6 847.6 155 819.6 133 788.8 75.4 708.3 45 612.7 45 512.5 45 449.3 57 388 80.9 330.3 103.9 274.5 136.7 224.6 178.7 181.8 220.5 138.9 269.3 105.2 323.3 81.8 379.2 57.5 438.8 45 500 45 561.2 45 620.8 57.3 676.8 81.5 731.1 104.9 779.6 138.6 821.4 181.5 863.2 224.4 896.2 274.5 919.2 330 943 387.8 955 449 955 512.3 955 612.5 924.8 708.1 867.3 788.6 839.7 827.3 806.7 861.2 769.1 889.6Z" fill="#A8A9A8"/></g></svg>