<svg width="124" height="136" xmlns="http://www.w3.org/2000/svg" xmlns:xlink="http://www.w3.org/1999/xlink" overflow="hidden"><defs><clipPath id="clip0"><rect x="328" y="262" width="124" height="136"/></clipPath></defs><g clip-path="url(#clip0)" transform="translate(-328 -262)"><path d="M333 348.883 390 321 447 348.883 425.228 394 354.772 394Z" stroke="#FFFFFF" stroke-width="8" stroke-linejoin="round" stroke-miterlimit="10" fill="#FFFFFF" fill-rule="evenodd"/><path d="M354 328 354 323.88 389.5 310 425 323.88 425 328 389.5 314.121Z" fill="#FFFFFF" fill-rule="evenodd"/><path d="M362.729 302.255C362.341 302.255 362.027 302.567 362.027 302.951L362.027 303.942C362.027 304.326 362.341 304.637 362.729 304.637L416.601 304.637C416.989 304.637 417.303 304.326 417.303 303.942L417.303 302.951C417.303 302.567 416.989 302.255 416.601 302.255ZM362.38 294.983C361.993 294.983 361.679 295.294 361.679 295.678L361.679 296.669C361.679 297.053 361.993 297.365 362.38 297.365L416.253 297.365C416.64 297.365 416.954 297.053 416.954 296.669L416.954 295.678C416.954 295.294 416.64 294.983 416.253 294.983ZM358.542 286 420.458 286C422.966 286 425 288.015 425 290.5L425 308.5C425 310.985 422.966 313 420.458 313L358.542 313C356.034 313 354 310.985 354 308.5L354 290.5C354 288.015 356.034 286 358.542 286Z" fill="#FFFFFF" fill-rule="evenodd"/><path d="M354 309 392 309 354 324Z" fill="#FFFFFF" fill-rule="evenodd"/><path d="M0 36 0.813304 0 15 36Z" fill="#FFFFFF" fill-rule="evenodd" transform="matrix(1.83697e-16 1 1 -1.83697e-16 389 309)"/><path d="M381 275.667C381 274.194 382.194 273 383.667 273L395.333 273C396.806 273 398 274.194 398 275.667L398 286.333C398 287.806 396.806 289 395.333 289L383.667 289C382.194 289 381 287.806 381 286.333Z" fill="#FFFFFF" fill-rule="evenodd"/><path d="M381 265.335C381 264.046 382.046 263 383.335 263L395.665 263C396.954 263 398 264.046 398 265.335L398 268.665C398 269.954 396.954 271 395.665 271L383.335 271C382.046 271 381 269.954 381 268.665Z" fill="#FFFFFF" fill-rule="evenodd"/></g></svg>